<svg width="73" height="56" viewBox="0 0 73 56" fill="none" xmlns="http://www.w3.org/2000/svg">
<path d="M58.7826 0C50.1081 0 45.2897 4.71702 44.3275 14.0491L41.4336 42.4313C41.142 45.2193 39.4071 46.6679 36.4257 46.6679C33.4443 46.6679 31.7021 45.2266 31.4178 42.4313L28.5239 14.0491C27.5616 4.71702 22.7433 0 14.0687 0C5.39423 0 0 5.38672 0 14.0491V51.0937C0 54.0783 1.82967 56 4.81837 56C7.80707 56 9.63674 54.0783 9.63674 51.0937V14.0491C9.63674 11.0646 11.3716 9.23749 14.2583 9.23749C17.1449 9.23749 18.5955 10.8753 18.8798 14.0491L21.7738 42.4313C22.736 51.4795 27.6491 56 36.4184 56C45.1877 56 50.1008 51.4795 51.063 42.4313L53.957 14.0491C54.2485 10.8753 55.7866 9.23749 58.5785 9.23749C61.3704 9.23749 63.2 11.0646 63.2 14.0491V51.0937C63.2 54.0783 65.0297 56 68.0184 56C71.0071 56 72.8368 54.0783 72.8368 51.0937V14.0491C72.8368 5.38672 67.4426 0 58.768 0H58.7826Z" fill="#0050DC"/>
</svg>
