<svg width="268" height="34" viewBox="0 0 268 34" fill="none" xmlns="http://www.w3.org/2000/svg">
<g clip-path="url(#clip0_722_2)">
<path d="M143.386 7.7598C142.118 7.7598 141.343 8.53634 141.343 9.79963V18.9015C141.343 21.7573 139.913 23.1865 137.135 23.1865C134.358 23.1865 132.885 21.7573 132.885 18.9015V9.79963C132.885 8.53353 132.107 7.7598 130.842 7.7598C129.578 7.7598 128.8 8.53634 128.8 9.79963V18.9015C128.8 23.9209 131.989 27.0636 137.096 27.0636C142.203 27.0636 145.431 23.9209 145.431 18.9015V9.79963C145.431 8.53353 144.653 7.7598 143.389 7.7598H143.386Z" fill="#0050DC"/>
<path d="M152.58 0.658375C151.312 0.658375 150.538 1.47431 150.538 2.74041V24.8212C150.538 26.0873 151.315 26.9033 152.58 26.9033C153.845 26.9033 154.622 26.0873 154.622 24.8212V2.74041C154.622 1.47431 153.845 0.658375 152.58 0.658375Z" fill="#0050DC"/>
<path d="M190.128 0.658375C188.861 0.658375 188.086 1.47431 188.086 2.74041V25.0998C188.086 26.3659 188.864 27.1818 190.128 27.1818C191.393 27.1818 192.171 26.3659 192.171 25.0998V2.74041C192.171 1.47431 191.393 0.658375 190.128 0.658375Z" fill="#0050DC"/>
<path d="M117.721 3.14837C114.043 3.14837 112 5.14881 111.592 9.10749L110.367 21.1467C110.243 22.3312 109.508 22.9418 108.243 22.9418C106.978 22.9418 106.24 22.3284 106.119 21.1467L104.894 9.10749C104.485 5.14881 102.443 3.14837 98.7641 3.14837C95.0853 3.14837 92.798 5.43298 92.798 9.10749V24.8212C92.798 26.0873 93.5755 26.9033 94.8403 26.9033C96.105 26.9033 96.8825 26.0873 96.8825 24.8212V9.10749C96.8825 7.84139 97.6177 7.06766 98.843 7.06766C100.068 7.06766 100.682 7.76261 100.804 9.10749L102.029 21.1467C102.437 24.9844 104.522 26.9004 108.24 26.9004C111.958 26.9004 114.043 24.9816 114.451 21.1467L115.676 9.10749C115.8 7.7598 116.454 7.06766 117.637 7.06766C118.82 7.06766 119.597 7.8442 119.597 9.10749V24.8212C119.597 26.0873 120.375 26.9033 121.64 26.9033C122.904 26.9033 123.682 26.0873 123.682 24.8212V9.10749C123.682 5.43298 121.395 3.14837 117.716 3.14837H117.721Z" fill="#0050DC"/>
<path d="M180.326 7.7598C179.058 7.7598 178.284 8.57573 178.284 9.84183V25.0998C178.284 26.3659 179.061 27.1818 180.326 27.1818C181.591 27.1818 182.368 26.3659 182.368 25.0998V9.84183C182.368 8.57573 181.591 7.7598 180.326 7.7598Z" fill="#0050DC"/>
<path d="M172.194 22.8208C171.458 22.8208 170.681 23.1894 169.661 23.1894C167.292 23.1894 166.064 21.8839 166.064 19.3123V11.6397H171.825C173.092 11.6397 173.867 10.9447 173.867 9.80244C173.867 8.66014 173.089 7.96519 171.825 7.96519H166.064V5.23041C166.064 3.9643 165.287 3.14837 164.061 3.14837C162.836 3.14837 162.059 3.9643 162.059 5.23041V7.96519H159.729C158.461 7.96519 157.687 8.66014 157.687 9.80244C157.687 10.9447 158.464 11.6397 159.729 11.6397H162.059V19.3123C162.059 24.0869 164.96 27.0664 169.658 27.0664C171.537 27.0664 174.072 26.5347 174.072 24.7818C174.072 23.7211 173.377 22.8236 172.194 22.8236V22.8208Z" fill="#0050DC"/>
<path d="M0.68731 27.8964H2.27601C2.67318 30.5299 4.66187 31.9395 8.3463 31.9395C12.9349 31.9395 14.887 29.4861 14.887 26.0564V21.9429C14.056 24.2895 11.9237 26.5628 7.98575 26.5628C3.03374 26.56 0 22.953 0 17.5032V16.8166C0 11.2964 3.03374 7.7598 7.98575 7.7598C12.0674 7.7598 14.1997 10.3229 14.9574 12.4866L14.9941 8.19308H16.3321V26.0564C16.3321 30.0629 13.9462 33.2028 8.3125 33.2028C3.68725 33.2028 1.15772 31.1827 0.690126 27.8993L0.68731 27.8964ZM14.9574 17.5032V16.8166C14.9574 12.0533 12.4279 9.05685 8.12941 9.05685C3.83091 9.05685 1.51828 12.0533 1.51828 16.8166V17.5032C1.51828 22.2299 3.86752 25.2629 8.12941 25.2629C12.3913 25.2629 14.9574 22.2327 14.9574 17.5032Z" fill="#0050DC"/>
<path d="M21.3883 26.6332V8.19309H22.7967L22.8333 12.2362C23.6277 9.63926 25.8671 7.76261 28.867 7.76261C29.0473 7.76261 29.3374 7.76261 29.5909 7.79919V9.3157C29.3008 9.27912 29.0501 9.27912 28.8332 9.27912C25.329 9.27912 22.8361 11.6256 22.8361 16.2427V26.636H21.3911L21.3883 26.6332Z" fill="#0050DC"/>
<path d="M32.6247 20.1732V8.19308H34.0697V19.9228C34.0697 23.5664 35.7683 25.7328 39.2724 25.7328C43.0301 25.7328 45.1258 22.8827 45.1258 18.7693V8.19308H46.5708V26.6332H45.1624L45.1258 22.8433C44.2948 25.2264 42.0555 27.0664 39.0189 27.0664C34.8641 27.0664 32.6247 24.5033 32.6247 20.1732Z" fill="#0050DC"/>
<path d="M51.6299 32.7695V8.19308H53.0017L53.0383 12.4866C53.796 10.3201 55.8918 7.7598 60.01 7.7598C64.9226 7.7598 67.9591 11.3696 67.9591 16.9995V17.8295C67.9591 23.4595 64.9592 27.0693 59.9734 27.0693C55.9988 27.0693 53.9031 24.6524 53.0721 22.4494V32.7695H51.6271H51.6299ZM66.4803 17.8295V16.9995C66.4803 12.1264 64.131 9.05966 59.8325 9.05966C55.534 9.05966 53.0411 12.1264 53.0411 16.9995V17.8295C53.0411 22.7364 55.5707 25.7694 59.8325 25.7694C64.0944 25.7694 66.4803 22.7026 66.4803 17.8295Z" fill="#0050DC"/>
<path d="M70.9619 17.8295V16.9995C70.9619 11.333 74.1787 7.7598 79.3082 7.7598C84.4376 7.7598 87.6911 11.333 87.6911 16.9995V17.8295C87.6911 23.496 84.4743 27.0693 79.3082 27.0693C74.1421 27.0693 70.9619 23.496 70.9619 17.8295ZM86.17 17.8295V16.9995C86.17 12.0927 83.7137 9.05966 79.3054 9.05966C74.897 9.05966 72.4773 12.0899 72.4773 16.9995V17.8295C72.4773 22.7364 74.9336 25.7694 79.3054 25.7694C83.6771 25.7694 86.17 22.7392 86.17 17.8295Z" fill="#0050DC"/>
<path d="M225.407 15.6096C222.612 15.1201 221.421 14.5349 221.421 13.159C221.421 11.6903 222.649 10.8378 224.716 10.8378C226.522 10.8435 227.694 11.5497 228.863 12.4191C229.806 13.1196 230.835 12.7117 231.336 11.997C231.823 11.3021 231.849 10.2695 230.956 9.48451C226.88 5.68902 217.291 7.17458 217.291 12.9761C217.291 17.1712 220.488 18.6539 223.795 19.1491C226.598 19.5458 227.778 20.1789 227.778 21.4872C227.778 22.863 226.452 23.8618 224.325 23.8477C222.432 23.8365 220.812 23.1697 219.64 22.3565C218.584 21.625 217.071 21.6982 216.494 22.7026C216.153 23.2963 216.26 24.326 217.359 25.1701C219.443 26.771 221.666 27.4378 224.759 27.4378C229.122 27.4378 231.77 25.0097 231.849 21.459C231.93 17.7873 228.384 16.1414 225.409 15.6068L225.407 15.6096Z" fill="#0050DC"/>
<path d="M196.435 21.7207C196.435 19.1266 197.734 17.4469 199.875 16.5353C200.627 16.2145 201.43 16.0317 202.244 15.9501L208.435 15.3367V13.9553C208.435 12.3937 207.511 10.866 205.027 10.866C203.373 10.866 202.131 11.575 201.249 12.2953C200.841 12.7032 199.247 12.9761 198.556 12.2108C198.024 11.62 197.982 10.7028 198.308 10.0922C199.187 8.4463 201.923 7.31244 205.139 7.31244C210.846 7.31244 212.821 10.9673 212.821 14.0284V24.8831C212.821 26.0367 212.241 27.1086 210.962 27.1086H210.539C209.305 27.1086 208.613 26.0986 208.551 24.9872L208.469 23.9349C207.283 25.9663 205.308 27.2746 202.399 27.2746C199.078 27.2746 196.427 25.021 196.427 21.7179L196.435 21.7207ZM208.438 19.9453V18.4569L203.077 18.8537C201.432 19.0703 200.263 19.9875 200.263 21.6166C200.263 22.9586 201.413 24.0503 203.365 24.0503C205.967 24.0503 208.438 22.0133 208.438 19.9453Z" fill="#0050DC"/>
<path d="M244.575 23.9968C246.964 23.9968 247.998 23.5439 249.124 22.8799C249.814 22.4719 250.8 22.8264 251.175 23.4454C251.592 24.1347 251.521 25.277 250.606 25.8763C249.124 26.9061 247.713 27.4125 245.119 27.4125C238.612 27.4125 235.308 22.6351 235.308 17.2668C235.308 11.8985 238.395 7.46719 244.584 7.46719C250.772 7.46719 252.89 12.3346 252.89 15.6265C252.89 17.2837 251.992 18.9775 249.916 18.9775H239.187C239.187 18.9775 239.136 23.9968 244.575 23.9968ZM248.598 15.7644C249.017 15.7644 249.285 15.3958 249.285 14.9766C249.285 12.4472 246.817 11.0038 244.26 11.0038C241.525 11.0038 239.434 12.8467 239.434 15.7644H248.6H248.598Z" fill="#0050DC"/>
<path d="M259.209 7.65851C257.964 7.65851 257.141 8.46037 257.141 9.70397V25.0294C257.141 26.273 257.964 27.0749 259.209 27.0749C260.454 27.0749 261.217 26.273 261.217 25.0294V9.70397C261.217 8.46037 260.454 7.65851 259.209 7.65851Z" fill="#0050DC"/>
<path d="M261.217 10.4186C261.89 8.83457 263.358 7.8442 265.023 7.8442C266.53 7.8442 267.6 8.63762 267.6 10.1401C267.6 11.7241 266.49 12.2924 264.865 12.2924C262.882 12.2924 261.217 13.9018 261.217 17.5454" fill="#0050DC"/>
<path d="M180.326 4.89841C181.796 4.89841 182.819 3.87709 182.819 2.45061C182.819 1.02414 181.796 0.00281525 180.326 0.00281525C178.855 0.00281525 177.833 1.02414 177.833 2.45061C177.833 3.87709 178.855 4.89841 180.326 4.89841Z" fill="#0050DC"/>
</g>
<defs>
<clipPath id="clip0_722_2">
<rect width="267.6" height="33.2" fill="white"/>
</clipPath>
</defs>
</svg>
